<?xml version="1.0" standalone="no"?>
<!DOCTYPE svg PUBLIC "-//W3C//DTD SVG 20010904//EN"
 "http://www.w3.org/TR/2001/REC-SVG-20010904/DTD/svg10.dtd">
<svg version="1.0" xmlns="http://www.w3.org/2000/svg"
 width="1024.000000pt" height="1024.000000pt" viewBox="0 0 1024.000000 1024.000000"
 preserveAspectRatio="xMidYMid meet">
<metadata>
Created by potrace 1.11, written by Peter Selinger 2001-2013
</metadata>
<g transform="translate(0.000000,1024.000000) scale(0.100000,-0.100000)"
fill="#000000" stroke="none">
<path d="M4619 10236 c-2 -2 -56 -7 -119 -11 -63 -3 -128 -8 -145 -9 -16 -2
-68 -6 -115 -10 -47 -4 -96 -9 -110 -11 -29 -5 -168 -23 -224 -30 -21 -2 -46
-6 -55 -9 -9 -3 -36 -7 -61 -11 -25 -3 -52 -7 -60 -9 -8 -1 -37 -7 -65 -11
-27 -5 -52 -9 -55 -10 -670 -141 -1162 -347 -1565 -654 -142 -108 -358 -313
-480 -456 -373 -435 -631 -974 -739 -1540 -13 -71 -27 -155 -31 -185 -3 -30
-8 -71 -10 -90 -18 -154 -24 -488 -11 -610 4 -30 8 -75 11 -100 12 -114 16
-146 20 -160 2 -8 6 -37 10 -63 18 -147 92 -441 160 -636 59 -170 193 -503
265 -657 16 -36 30 -67 30 -69 0 -24 349 -718 467 -927 23 -43 43 -79 43 -82
0 -2 27 -50 60 -106 33 -56 60 -103 60 -105 0 -13 335 -572 449 -750 28 -44
58 -93 67 -109 35 -63 388 -598 555 -841 265 -386 689 -964 878 -1195 47 -58
92 -114 101 -124 8 -11 64 -71 125 -133 285 -297 525 -442 840 -508 51 -11
317 -15 365 -6 25 5 63 12 84 15 61 10 207 61 288 102 266 132 499 346 806
739 56 72 105 135 110 140 4 6 28 37 52 70 25 33 49 64 53 70 31 38 198 267
339 465 92 129 171 240 175 246 4 5 13 17 18 26 17 28 199 293 208 303 12 15
229 345 320 488 45 70 89 139 97 151 44 69 193 312 277 451 43 72 83 139 90
150 7 11 15 27 19 35 4 7 25 42 46 77 21 34 38 65 38 68 0 2 17 33 38 67 38
63 179 317 266 480 139 262 344 688 436 903 23 55 46 108 51 118 18 35 139
346 178 461 82 236 157 564 176 766 4 36 8 70 10 76 21 69 22 587 0 714 -2 14
-6 52 -10 85 -3 33 -7 67 -10 75 -2 8 -6 31 -9 50 -3 19 -8 46 -11 60 -2 14
-7 39 -10 55 -58 299 -189 650 -361 962 -35 64 -201 322 -213 333 -3 3 -25 31
-49 63 -67 89 -185 223 -291 328 -384 381 -823 630 -1430 809 -97 28 -317 82
-386 94 -16 3 -41 8 -55 11 -43 10 -303 53 -360 60 -30 4 -62 9 -70 10 -13 2
-83 10 -185 20 -16 2 -70 7 -120 10 -49 4 -106 9 -125 12 -42 5 -1136 13
-1141 9z m-189 -1072 c118 -2 271 -6 340 -8 177 -6 229 -30 276 -131 l24 -50
0 -556 c0 -516 1 -558 18 -577 10 -12 54 -32 107 -47 50 -15 99 -31 110 -35
11 -5 29 -10 40 -13 11 -2 182 -55 380 -117 198 -62 369 -114 380 -116 96 -21
165 -22 605 -9 551 15 576 15 707 -9 57 -11 457 -157 495 -181 43 -28 81 -75
104 -131 15 -34 17 -86 19 -389 2 -294 5 -357 19 -393 15 -43 54 -109 177
-302 72 -114 105 -180 118 -240 10 -45 8 -159 -4 -215 -7 -33 -50 -270 -60
-325 -38 -225 -61 -285 -136 -359 -29 -29 -137 -99 -294 -191 -137 -80 -254
-147 -259 -149 -6 -2 -30 -17 -53 -32 -23 -16 -44 -29 -46 -29 -3 0 -34 -17
-68 -38 -35 -22 -84 -50 -109 -64 -247 -138 -562 -331 -597 -365 -61 -60 -329
-601 -338 -681 -5 -43 3 -89 40 -240 74 -300 77 -321 71 -367 -11 -70 -83
-129 -154 -127 -50 1 -837 203 -887 227 -54 26 -119 82 -152 130 -11 17 -44
75 -73 130 -29 55 -70 132 -90 170 -21 39 -61 115 -90 170 -29 55 -65 123 -80
150 -15 28 -52 97 -82 155 -146 278 -263 500 -288 545 -15 28 -47 86 -70 130
-56 105 -76 133 -119 173 -59 53 -380 254 -435 273 -39 12 -79 15 -171 13
-205 -6 -205 -6 -299 -167 -76 -131 -110 -169 -172 -193 -72 -27 -130 -15
-269 56 -66 34 -181 93 -256 131 -143 72 -210 123 -259 194 -16 23 -70 145
-120 271 -50 126 -104 251 -120 279 -19 33 -150 171 -376 395 -190 190 -357
356 -370 370 -66 68 -52 174 29 217 29 16 96 17 844 17 446 1 814 4 817 7 7 6
11 74 22 349 3 91 7 201 9 245 2 44 6 148 9 230 4 83 9 207 11 277 5 128 11
282 20 503 3 66 7 183 10 260 3 77 8 190 10 250 3 61 7 170 10 243 3 77 10
146 18 165 21 48 62 92 110 116 41 22 48 22 387 16 190 -3 442 -8 560 -11z"/>
</g>
</svg>
